<?xml version="1.0" encoding="utf-8"?>
<!-- Generator: Adobe Illustrator 27.3.1, SVG Export Plug-In . SVG Version: 6.00 Build 0)  -->
<svg version="1.1" id="Layer_1" xmlns="http://www.w3.org/2000/svg" xmlns:xlink="http://www.w3.org/1999/xlink" x="0px" y="0px"
	 viewBox="0 0 263.76 282.3" style="enable-background:new 0 0 263.76 282.3;" xml:space="preserve">
<style type="text/css">
	.st0{fill:#8261A9;stroke:#8261A9;stroke-linecap:round;stroke-miterlimit:10;}
	.st1{fill:#FFFFFF;stroke:#8261A9;stroke-linecap:round;stroke-miterlimit:10;}
</style>
<polyline class="st0" points="94.35,108.5 86.2,108.5 86.24,127.84 69.12,127.84 69.21,127.78 69.21,108.1 25.21,107.93 
	57.18,17.13 77.68,16.93 51.06,91.29 94.35,91.29 94.66,92.36 94.66,107.38 "/>
<path class="st0" d="M145.41,189.52h-30.83c-6.6,0-12-5.4-12-12v-74.99c0-6.6,5.4-12,12-12h30.83c6.6,0,12,5.4,12,12v74.99
	C157.41,184.12,152.01,189.52,145.41,189.52z"/>
<rect x="116.43" y="105.9" class="st1" width="27.12" height="70.19"/>
<polyline class="st0" points="233.69,107.74 225.54,107.74 225.58,127.08 208.46,127.08 208.55,127.02 208.55,107.34 164.55,107.16 
	196.52,16.37 217.02,16.17 190.4,90.52 233.69,90.52 234,91.59 234,106.61 "/>
<path class="st1" d="M205.31,275.17"/>
<path class="st0" d="M179.5,234.67l9.29-11.35c-34.19-32.47-86.78-32.48-117.59-0.04l13.77,10.42l0.26-0.25
	c27.62-25.29,69.47-24.46,93.56,1.86"/>
</svg>
