<?xml version="1.0" encoding="UTF-8"?>
<svg id="Layer_2" data-name="Layer 2" xmlns="http://www.w3.org/2000/svg" viewBox="0 0 214.71 154.54">
  <defs>
    <style>
      .cls-1 {
        fill: #d7eaf3;
        opacity: .31;
      }

      .cls-1, .cls-2, .cls-3, .cls-4, .cls-5, .cls-6 {
        stroke-width: 0px;
      }

      .cls-2 {
        fill: #fff;
      }

      .cls-3 {
        fill: #9d4c39;
      }

      .cls-4 {
        fill: #ad4d36;
      }

      .cls-5 {
        fill: #f3f3f5;
      }

      .cls-6 {
        fill: #342241;
      }
    </style>
  </defs>
  <g id="OBJECTS">
    <g>
      <path class="cls-5" d="m0,150.71c11.18-5.29,19.28-26.9,24.66-47.94,6.96-27.24,14.84-58.11,37.97-66.22,11.6-4.07,22.24-3.64,31.64,1.28,19.35,10.13,26.53,35.49,26.82,36.57l-2.89.8c-.07-.25-7.14-25.19-25.33-34.71-8.62-4.51-18.46-4.88-29.24-1.1-21.61,7.58-29.28,37.62-36.05,64.13-5.74,22.49-14.2,45.44-27.56,50.45v-3.26Z"/>
      <path class="cls-5" d="m134.03,35.77c23.07,9.19,44.09-8.51,44.09-8.51l.81,1.29c3.4-3.56,7.78-6.03,12.13-7.22.65-.18,1.32-.33,1.98-.24.66.09,1.33.44,1.71,1.1.44.75.45,1.78.19,2.64-.26.86-.77,1.58-1.32,2.22-1.08,1.27-2.36,2.29-3.74,3-.61.31-2.57,1.05-2.16,2.39.25.81,1.26.81,1.92.5.66-.31,1.2-.93,1.87-1.25,1.36-.64,3.16.25,1.9,2.57-.34.62-.86,1.05-1.39,1.42-2.13,1.49-3.99,3.11-6.14,3.96l.03.05s-29.37,24.59-53.57,12.09c-10.27-5.3-2.51-17.7,1.68-16.03Z"/>
      <path class="cls-4" d="m176.35,25.63h0c.84-.47,1.91-.17,2.38.68l7.37,13.25c.47.84.17,1.91-.68,2.38h0c-.84.47-1.91.17-2.38-.68l-7.37-13.25c-.47-.84-.17-1.91.68-2.38Z"/>
      <path class="cls-2" d="m46.8,80.03c.15-2.48,2.28-4.37,4.76-4.22l7.8.46s.05,0,.07.01c.07-.02.14-.04.22-.03,13.15,1.67,24.39-.36,33.22-3.45.73-6.43,3.5-13.24,8.63-19.9,11.54-14.97,21.63-20.41,30.66-20.27l-.47-.37c-.56-.43-.67-1.23-.24-1.79l1.97-2.56c.43-.55,1.23-.66,1.79-.22l.54.42c-1.29-6.43.1-13.35,4.42-18.95,7.78-10.1,22.17-12.13,32.41-4.66.19.12.35.25.53.38,10.27,7.92,12.19,22.67,4.27,32.94-2.45,3.18-5.57,5.57-9,7.09-2.6,1.17-5.39,1.83-8.22,2l.55.43c.27.21.44.5.48.81.06.33-.02.69-.24.97l-1.66,2.15c2.36,5.25,2.82,11.44.43,18.85-1.74,5.39-4.98,11.43-10.09,18.22-.25.34-.51.68-.78,1.02-6.37,8.27-13.89,13.08-21.42,14.77-3.28,8.11-8.47,18.58-16.65,30.9,5,5.07,6.23,13.02,2.5,19.48l-25.14-14.53c-2.15-1.24-2.89-4-1.64-6.15l3.81-6.59c.61-1.06,1.63-1.73,2.74-1.95,5.49-8.86,9.9-17.41,13.31-24.8-.85-.53-1.68-1.1-2.48-1.73-2.15-1.66-4.02-3.55-5.58-5.62-9.23,2.37-21.26,4.21-36.4,4.29-1.94,7.29-8.8,12.46-16.63,11.99h-.2s1.75-29.42,1.75-29.42Z"/>
      <path class="cls-6" d="m149.05,68.15l-6.46,8.38c-1.64,2.13-1.25,5.2.89,6.84l5.56,4.28c5.05-6.71,8.25-12.68,9.97-18l-3.11-2.4c-2.14-1.65-5.2-1.24-6.84.89Z"/>
      <path class="cls-4" d="m111.56,73.4l29.48,22.72c.89.68,2.16.52,2.84-.37h0c.68-.89.52-2.16-.37-2.84l-29.48-22.72-2.47,3.21Z"/>
      <path class="cls-4" d="m92.34,127.71l18.02,9.25c1.01.52,2.25.12,2.77-.89h0c.52-1.01.12-2.25-.89-2.77l-18.02-9.25c-1.01-.52-2.25-.12-2.77.89h0c-.52,1.01-.12,2.25.89,2.77Z"/>
      <path class="cls-4" d="m60.1,77.2l2.6,20.09c.15,1.13,1.18,1.92,2.3,1.77h0c1.13-.15,1.92-1.18,1.77-2.3l-2.6-20.09c-.15-1.13-1.18-1.92-2.3-1.77h0c-1.13.15-1.92,1.18-1.77,2.3Z"/>
      <path class="cls-6" d="m167.3,44.92c3.43-1.53,6.54-3.91,8.99-7.1.63-.82,1.2-1.67,1.7-2.54.37-.62.7-1.25.99-1.89.27-.56.51-1.13.72-1.7.56-1.48.95-3.01,1.19-4.55,1.29-8.2-1.82-16.83-8.86-22.26-.18-.13-.34-.26-.53-.38-1.1,1.07-2.14,2.22-3.11,3.47-1,1.3-1.88,2.64-2.64,4.03-.71,1.28-1.32,2.59-1.83,3.92-.23.6-.44,1.2-.62,1.8-.24.74-.45,1.49-.62,2.25-2.01,8.53-.37,17.63,4.62,24.95Z"/>
      <path class="cls-6" d="m156.25,47.55c-.34.44-.26,1.08.18,1.42s1.08.26,1.42-.18c.34-.44.26-1.08-.18-1.42-.44-.34-1.08-.26-1.42.18Z"/>
      <path class="cls-6" d="m153.35,45.31c-.34.44-.26,1.08.18,1.42s1.08.26,1.42-.18c.34-.44.26-1.08-.18-1.42s-1.08-.26-1.42.18Z"/>
      <path class="cls-6" d="m150.44,43.07c-.34.44-.26,1.08.18,1.42.44.34,1.08.26,1.42-.18.34-.44.26-1.08-.18-1.42-.44-.34-1.08-.26-1.42.18Z"/>
      <path class="cls-6" d="m147.54,40.84c-.34.44-.26,1.08.18,1.42.44.34,1.08.26,1.42-.18s.26-1.08-.18-1.42-1.08-.26-1.42.18Z"/>
      <path class="cls-6" d="m144.64,38.6c-.34.44-.26,1.08.18,1.42.44.34,1.08.26,1.42-.18.34-.44.26-1.08-.18-1.42-.44-.34-1.08-.26-1.42.18Z"/>
      <path class="cls-6" d="m141.73,36.36c-.34.44-.26,1.08.18,1.42.44.34,1.08.26,1.42-.18.34-.44.26-1.08-.18-1.42s-1.08-.26-1.42.18Z"/>
      <path class="cls-5" d="m138.83,34.12c-.34.44-.26,1.08.18,1.42.44.34,1.08.26,1.42-.18.34-.44.26-1.08-.18-1.42-.44-.34-1.08-.26-1.42.18Z"/>
      <path class="cls-5" d="m135.92,31.88c-.34.44-.26,1.08.18,1.42.44.34,1.08.26,1.42-.18.34-.44.26-1.08-.18-1.42-.44-.34-1.08-.26-1.42.18Z"/>
      <path class="cls-4" d="m92.05,81.94l5.06,3.9c3.88,2.99,9.45,2.27,12.44-1.61l29.46-38.23c4.3-5.58,3.26-13.58-2.32-17.88h0c-5.58-4.3-13.58-3.26-17.88,2.32l-28.62,37.14c-3.45,4.48-2.62,10.91,1.86,14.36Z"/>
      <path class="cls-3" d="m138.8,30.46l-.21.28,22.61,17.42c-.05-.31-.21-.61-.48-.81l-21.91-16.88Z"/>
      <path class="cls-5" d="m140.21,51.04c28.14,9.19,53.77-8.51,53.77-8.51l.99,1.29c4.14-3.56,9.49-6.03,14.8-7.22.79-.18,1.61-.33,2.41-.24.81.09,1.62.44,2.09,1.1.54.75.55,1.78.23,2.64-.32.86-.94,1.58-1.61,2.22-1.32,1.27-2.87,2.29-4.56,3-.74.31-3.14,1.05-2.64,2.39.3.81,1.53.81,2.34.5s1.47-.93,2.28-1.25c1.66-.64,3.85.25,2.32,2.57-.41.62-1.05,1.05-1.7,1.42-2.6,1.49-4.87,3.11-7.49,3.96l.04.05s-35.82,24.59-65.33,12.09c-12.52-5.3-3.07-17.7,2.05-16.03Z"/>
      <path class="cls-4" d="m192.23,44.42l7.37,13.25c.47.84,1.54,1.15,2.38.68h0c.84-.47,1.15-1.54.68-2.38l-7.37-13.25c-.47-.84-1.54-1.15-2.38-.68h0c-.84.47-1.15,1.54-.68,2.38Z"/>
      <path class="cls-1" d="m163.92,15.92l15.78,15.77c.56-1.48.95-3.01,1.19-4.55l-15.14-15.14c-.71,1.28-1.32,2.59-1.83,3.92Z"/>
      <path class="cls-1" d="m162.68,19.97l15.31,15.31c.37-.62.7-1.25.99-1.89l-15.68-15.67c-.24.74-.45,1.49-.62,2.25Z"/>
    </g>
  </g>
</svg>