<?xml version="1.0" encoding="UTF-8"?>
<svg id="Layer_2" data-name="Layer 2" xmlns="http://www.w3.org/2000/svg" xmlns:xlink="http://www.w3.org/1999/xlink" viewBox="0 0 305 59">
  <defs>
    <style>
      .cls-1 {
        fill: none;
      }

      .cls-1, .cls-2 {
        stroke-width: 0px;
      }

      .cls-3 {
        clip-path: url(#clippath);
      }

      .cls-2 {
        fill: #edff71;
        fill-rule: evenodd;
      }
    </style>
    <clipPath id="clippath">
      <rect class="cls-1" width="310" height="59"/>
    </clipPath>
  </defs>
  <g id="OBJECTS">
    <g class="cls-3">
      <g>
        <path class="cls-2" d="m1.93,36.93h2.35c.47-6.62,6.23-11.83,13.27-11.83.72,0,1.41.06,2.08.17,2.69-7.62,10.33-13.1,19.37-13.1,7.04,0,13.24,3.35,16.9,8.45,1.27-.3,2.58-.44,3.93-.44,9.09,0,16.43,6.82,16.43,15.21,0,.53-.03,1.03-.08,1.55h.22c5.9,0,10.75,4.82,10.75,10.75h0c0,5.9-4.85,10.75-10.75,10.75H1.93c-5.93,0-10.78-4.85-10.78-10.75h0c0-5.93,4.85-10.75,10.78-10.75h0Z"/>
        <path class="cls-2" d="m35.36,43.02h14.41c.36-5.79,5.18-10.39,11.08-10.39,2.05,0,3.96.55,5.62,1.5,1.77-6.32,7.59-10.94,14.49-10.94,1.94,0,3.8.36,5.51,1.03,3.41-6.51,10.22-10.97,18.09-10.97,9.75,0,17.92,6.87,19.95,16.04,6.26,1,11.03,6.4,11.03,12.94,0,.28,0,.55-.03.8h11.36c4.35,0,7.9,3.55,7.9,7.9h0c0,4.35-3.55,7.9-7.9,7.9H35.36c-4.32,0-7.87-3.55-7.87-7.9h0c0-4.35,3.55-7.9,7.87-7.9h0Z"/>
        <path class="cls-2" d="m183.93,36.93h2.35c.47-6.62,6.23-11.83,13.27-11.83.72,0,1.41.06,2.08.17,2.69-7.62,10.33-13.1,19.37-13.1,7.04,0,13.24,3.35,16.9,8.45,1.27-.3,2.58-.44,3.93-.44,9.09,0,16.43,6.82,16.43,15.21,0,.53-.03,1.03-.08,1.55h.22c5.9,0,10.75,4.82,10.75,10.75h0c0,5.9-4.85,10.75-10.75,10.75h-74.47c-5.93,0-10.78-4.85-10.78-10.75h0c0-5.93,4.85-10.75,10.78-10.75h0Z"/>
        <path class="cls-2" d="m220.36,43.02h14.41c.36-5.79,5.18-10.39,11.08-10.39,2.05,0,3.96.55,5.62,1.5,1.77-6.32,7.59-10.94,14.49-10.94,1.94,0,3.8.36,5.51,1.03,3.41-6.51,10.22-10.97,18.09-10.97,9.75,0,17.92,6.87,19.95,16.04,6.26,1,11.03,6.4,11.03,12.94,0,.28,0,.55-.03.8h11.36c4.35,0,7.9,3.55,7.9,7.9h0c0,4.35-3.55,7.9-7.9,7.9h-111.51c-4.32,0-7.87-3.55-7.87-7.9h0c0-4.35,3.55-7.9,7.87-7.9h0Z"/>
        <path class="cls-2" d="m223,45.35h-5.83c.13-.62.22-1.25.22-1.9,0-5.11-4.24-9.24-9.47-9.24-.72,0-1.41.08-2.11.22-1.63-3.89-5.62-6.64-10.31-6.64-1.16,0-2.3.16-3.35.49-2.71-4.89-8.06-8.24-14.24-8.24-7.65,0-14.05,5.13-15.71,12.02-1.16-.38-2.44-.57-3.77-.57-5.1,0-9.39,2.94-10.8,7.02h-.47c-5.17,0-9.69,2.75-12.08,6.85h-12.08c-3.87,0-7,3.06-7,6.82s3.13,6.82,7,6.82h100c3.87,0,7-3.06,7-6.82s-3.13-6.82-7-6.82Z"/>
      </g>
    </g>
  </g>
</svg>