<svg id="visual" viewBox="0 0 1460 540" width="1460" height="540" xmlns="http://www.w3.org/2000/svg" xmlns:xlink="http://www.w3.org/1999/xlink" version="1.1"><g stroke-width="1" stroke-linejoin="bevel"><path d="M654.7 386L635.7 540L826.3 384Z" fill="#12232b" stroke="#12232b"></path><path d="M635.7 540L851.3 540L826.3 384Z" fill="#12232b" stroke="#12232b"></path><path d="M851.3 540L1016.9 374L826.3 384Z" fill="#0e1c22" stroke="#0e1c22"></path><path d="M826.3 384L598.7 192L654.7 386Z" fill="#0e1d24" stroke="#0e1d24"></path><path d="M851.3 540L1049.9 540L1016.9 374Z" fill="#12232b" stroke="#12232b"></path><path d="M852.3 151L598.7 192L826.3 384Z" fill="#0e1c22" stroke="#0e1c22"></path><path d="M654.7 386L426.1 540L635.7 540Z" fill="#112229" stroke="#112229"></path><path d="M391.1 342L426.1 540L654.7 386Z" fill="#101f26" stroke="#101f26"></path><path d="M1016.9 374L852.3 151L826.3 384Z" fill="#0e1c22" stroke="#0e1c22"></path><path d="M598.7 192L391.1 342L654.7 386Z" fill="#0e1d24" stroke="#0e1d24"></path><path d="M1221.4 160L1015.9 160L1016.9 374Z" fill="#0d1a21" stroke="#0d1a21"></path><path d="M1016.9 374L1015.9 160L852.3 151Z" fill="#112229" stroke="#112229"></path><path d="M416.1 0L421.1 157L598.7 192Z" fill="#0f1e25" stroke="#0f1e25"></path><path d="M598.7 192L421.1 157L391.1 342Z" fill="#0f1e25" stroke="#0f1e25"></path><path d="M844.3 0L652.7 0L852.3 151Z" fill="#13242c" stroke="#13242c"></path><path d="M852.3 151L652.7 0L598.7 192Z" fill="#112229" stroke="#112229"></path><path d="M1015.9 160L844.3 0L852.3 151Z" fill="#0e1d24" stroke="#0e1d24"></path><path d="M1049.9 540L1240.4 540L1016.9 374Z" fill="#0b181e" stroke="#0b181e"></path><path d="M1240.4 540L1262.4 351L1016.9 374Z" fill="#112028" stroke="#112028"></path><path d="M1015.9 160L1034.9 0L844.3 0Z" fill="#0b181e" stroke="#0b181e"></path><path d="M226.6 194L213.6 347L391.1 342Z" fill="#112229" stroke="#112229"></path><path d="M391.1 342L213.6 347L426.1 540Z" fill="#0e1d24" stroke="#0e1d24"></path><path d="M1221.4 160L1034.9 0L1015.9 160Z" fill="#112028" stroke="#112028"></path><path d="M213.6 347L182.6 540L426.1 540Z" fill="#112229" stroke="#112229"></path><path d="M1262.4 351L1221.4 160L1016.9 374Z" fill="#12232b" stroke="#12232b"></path><path d="M421.1 157L226.6 194L391.1 342Z" fill="#0d1a21" stroke="#0d1a21"></path><path d="M652.7 0L416.1 0L598.7 192Z" fill="#13242c" stroke="#13242c"></path><path d="M225.6 0L226.6 194L421.1 157Z" fill="#13242c" stroke="#13242c"></path><path d="M0 337L0 540L182.6 540Z" fill="#0c191f" stroke="#0c191f"></path><path d="M1460 186L1243.4 0L1221.4 160Z" fill="#0d1a21" stroke="#0d1a21"></path><path d="M1221.4 160L1243.4 0L1034.9 0Z" fill="#0c191f" stroke="#0c191f"></path><path d="M416.1 0L225.6 0L421.1 157Z" fill="#0d1a21" stroke="#0d1a21"></path><path d="M0 337L182.6 540L213.6 347Z" fill="#112028" stroke="#112028"></path><path d="M1240.4 540L1460 540L1262.4 351Z" fill="#0c191f" stroke="#0c191f"></path><path d="M1262.4 351L1460 186L1221.4 160Z" fill="#13242c" stroke="#13242c"></path><path d="M1460 540L1460 344L1262.4 351Z" fill="#101f26" stroke="#101f26"></path><path d="M0 337L213.6 347L0 198Z" fill="#0d1a21" stroke="#0d1a21"></path><path d="M0 198L213.6 347L226.6 194Z" fill="#0e1c22" stroke="#0e1c22"></path><path d="M1460 344L1460 186L1262.4 351Z" fill="#0c191f" stroke="#0c191f"></path><path d="M0 0L0 198L226.6 194Z" fill="#112229" stroke="#112229"></path><path d="M1460 186L1460 0L1243.4 0Z" fill="#13242c" stroke="#13242c"></path><path d="M225.6 0L0 0L226.6 194Z" fill="#0f1e25" stroke="#0f1e25"></path></g></svg>